<svg version="1.1" id="Layer_1" xmlns="http://www.w3.org/2000/svg" xmlns:xlink="http://www.w3.org/1999/xlink" x="0px" y="0px"
	 width="100%" viewBox="0 0 1254 1254" enable-background="new 0 0 1254 1254" xml:space="preserve">
<path fill="#F5F5F5" opacity="1.000000" stroke="none" 
	d="
M1255.000000,481.000000 
	C1255.000000,739.333313 1255.000000,997.166687 1255.000000,1255.000000 
	C837.000000,1255.000000 419.000000,1255.000000 1.000000,1255.000000 
	C1.000000,837.000000 1.000000,419.000000 1.000000,1.000000 
	C419.000000,1.000000 837.000000,1.000000 1255.000000,1.000000 
	C1255.000000,160.833328 1255.000000,320.666656 1255.000000,481.000000 
M602.499939,1247.165039 
	C817.271667,1247.165039 1032.043335,1247.165039 1246.883911,1247.165039 
	C1246.883911,834.112244 1246.883911,421.580963 1246.883911,9.126921 
	C834.096130,9.126921 421.680359,9.126921 9.213326,9.126921 
	C9.213326,421.950378 9.213326,834.492065 9.213326,1246.962524 
	C9.702777,1247.067261 9.859534,1247.130249 10.016300,1247.130249 
	C207.177490,1247.144897 404.338684,1247.155273 602.499939,1247.165039 
z"/>
<path fill="#0C0C0E" opacity="1.000000" stroke="none" 
	d="
M601.999878,1247.165283 
	C404.338684,1247.155273 207.177490,1247.144897 10.016300,1247.130249 
	C9.859534,1247.130249 9.702777,1247.067261 9.213326,1246.962524 
	C9.213326,834.492065 9.213326,421.950378 9.213326,9.126921 
	C421.680359,9.126921 834.096130,9.126921 1246.883911,9.126921 
	C1246.883911,421.580963 1246.883911,834.112244 1246.883911,1247.165039 
	C1032.043335,1247.165039 817.271667,1247.165039 601.999878,1247.165283 
M572.957397,342.720612 
	C575.834961,349.434174 580.507629,351.034027 586.916687,347.252075 
	C626.469177,323.912079 666.009583,300.551483 705.514832,277.131714 
	C714.040833,272.077301 713.756775,264.472504 705.114685,259.417908 
	C689.185303,250.101105 673.303406,240.703186 657.390808,231.357635 
	C633.883301,217.551559 610.379517,203.739197 586.845276,189.978806 
	C579.841980,185.884003 574.242004,188.378006 572.819092,196.499832 
	C572.873779,196.668121 572.928467,196.836395 572.753845,197.916977 
	C572.747742,240.302475 572.732971,282.687958 572.746582,325.073456 
	C572.748291,330.381317 572.900513,335.689117 572.836121,341.505829 
	C572.908936,341.666687 572.981689,341.827515 572.957397,342.720612 
M363.235840,476.494232 
	C362.924377,479.383331 362.341522,482.272369 362.340607,485.161560 
	C362.305634,595.780823 362.322571,706.400024 362.349426,817.019287 
	C362.349823,818.666931 362.562439,820.314514 362.875488,822.719910 
	C374.608948,822.719910 386.342407,822.719910 398.619507,822.719910 
	C398.619507,766.238342 398.619507,710.215393 398.619507,653.039978 
	C400.665894,655.181152 401.898987,656.440002 403.098114,657.730469 
	C445.750366,703.630981 488.335571,749.594238 531.116394,795.374573 
	C537.678284,802.396484 544.469482,809.551208 552.317566,814.955811 
	C571.808655,828.378235 594.058044,832.662109 617.428772,831.588074 
	C635.370972,830.763611 651.800171,825.367432 665.865967,813.979309 
	C671.236877,809.630859 675.955750,804.477051 680.604126,800.041138 
	C688.242249,807.391785 696.145691,814.766602 703.740906,822.446289 
	C706.063965,824.795105 708.325439,825.689026 711.564941,825.679260 
	C747.064392,825.572998 782.568115,825.932129 818.062988,825.512207 
	C857.769470,825.042603 887.183960,807.139343 905.244080,771.553894 
	C922.425110,737.700439 917.436340,693.927979 892.682495,665.640808 
	C885.800049,657.775940 876.896667,651.679565 868.966064,644.811401 
	C893.543579,625.166504 904.903198,598.470276 903.927490,566.550415 
	C903.027893,537.120972 892.409546,512.055725 868.506958,493.635162 
	C854.493469,482.835663 838.366821,477.597687 820.715698,474.975861 
	C819.336182,474.652771 817.957092,474.049805 816.577087,474.047607 
	C783.518738,473.995300 750.460327,473.989868 717.402100,474.064178 
	C715.901733,474.067535 714.403198,474.895996 712.666870,475.695770 
	C712.442749,475.890350 712.182495,475.994751 711.125366,476.241364 
	C710.753845,478.091888 710.058350,479.942261 710.057312,481.792999 
	C710.005493,572.838806 710.018005,663.884705 710.006897,754.930542 
	C710.005859,763.084045 709.894958,771.237549 709.213501,779.093628 
	C681.432800,750.159241 653.652100,721.224854 625.865540,692.284302 
	C631.503723,687.156799 636.999878,682.582153 642.003601,677.520813 
	C652.839539,666.559998 658.606201,653.341919 657.258484,637.801331 
	C655.246399,614.599365 639.742126,598.029602 616.543335,593.511719 
	C595.622070,589.437378 571.814209,600.719604 562.087036,619.645142 
	C551.864685,639.533997 555.805725,658.402954 567.042053,676.453491 
	C569.825623,680.925110 573.284302,684.976685 576.591492,689.435486 
	C554.742371,703.662659 539.208557,722.109497 535.439087,749.731201 
	C502.163208,713.459595 469.682037,678.054199 437.216736,642.666138 
	C490.395935,587.332397 543.315613,532.268677 596.235291,477.204956 
	C580.303711,476.080872 565.040344,476.016296 549.779724,476.192200 
	C548.425781,476.207794 546.795898,477.534332 545.794983,478.686890 
	C540.613342,484.653503 535.909973,491.062195 530.467529,496.771118 
	C497.352509,531.507751 464.069519,566.084106 430.871185,600.741394 
	C420.322388,611.753723 409.860992,622.849731 398.467468,634.846985 
	C398.467468,581.301025 398.467468,528.972473 398.467468,476.630066 
	C386.569214,476.630066 375.270935,476.630066 363.235840,476.494232 
M292.848236,484.401825 
	C345.415680,377.747620 430.238312,310.935516 544.468628,280.462982 
	C544.468628,271.322388 544.468628,262.049622 544.468628,251.901123 
	C533.083435,254.924698 522.071106,257.394653 511.343872,260.770447 
	C429.700134,286.463318 362.859924,333.508667 310.861542,401.361237 
	C264.105164,462.373535 237.289139,531.453369 230.323456,607.977844 
	C224.664886,670.142517 234.122925,730.308289 257.743073,787.996948 
	C293.629028,875.642700 353.032013,942.958130 435.788513,989.016846 
	C516.197021,1033.768799 602.237244,1048.012207 692.696899,1031.482056 
	C783.270203,1014.931335 859.302063,971.323120 919.077881,901.444275 
	C999.307068,807.654907 1031.585815,698.588074 1010.412720,576.908875 
	C986.921021,441.904144 911.394165,343.846710 787.929565,283.609131 
	C771.839417,275.758850 754.577576,270.287750 737.776001,263.932495 
	C733.183167,262.195221 725.566101,265.885681 725.340210,269.846588 
	C724.974304,276.265289 725.241699,282.720032 725.241699,289.227570 
	C730.753845,291.019165 736.181580,292.614288 741.491577,294.534760 
	C810.472839,319.482910 867.914307,360.584869 912.779724,418.624481 
	C973.069702,496.617737 996.516113,585.468323 986.348572,682.864990 
	C978.449646,758.529724 948.822327,825.508972 898.634644,882.921570 
	C838.884460,951.273315 764.471069,993.362976 674.202393,1006.236389 
	C616.919312,1014.405579 560.577942,1009.364502 506.304871,989.550659 
	C393.678528,948.433289 316.746216,871.030396 276.579987,757.914612 
	C259.753479,710.527954 253.902695,661.392883 258.318329,611.252869 
	C262.196960,567.210693 274.002533,525.208313 292.848236,484.401825 
z"/>
<path fill="#F2EEE8" opacity="1.000000" stroke="none" 
	d="
M820.985779,475.702698 
	C838.366821,477.597687 854.493469,482.835663 868.506958,493.635162 
	C892.409546,512.055725 903.027893,537.120972 903.927490,566.550415 
	C904.903198,598.470276 893.543579,625.166504 868.966064,644.811401 
	C876.896667,651.679565 885.800049,657.775940 892.682495,665.640808 
	C917.436340,693.927979 922.425110,737.700439 905.244080,771.553894 
	C887.183960,807.139343 857.769470,825.042603 818.062988,825.512207 
	C782.568115,825.932129 747.064392,825.572998 711.564941,825.679260 
	C708.325439,825.689026 706.063965,824.795105 703.740906,822.446289 
	C696.145691,814.766602 688.242249,807.391785 680.604126,800.041138 
	C675.955750,804.477051 671.236877,809.630859 665.865967,813.979309 
	C651.800171,825.367432 635.370972,830.763611 617.428772,831.588074 
	C594.058044,832.662109 571.808655,828.378235 552.317566,814.955811 
	C544.469482,809.551208 537.678284,802.396484 531.116394,795.374573 
	C488.335571,749.594238 445.750366,703.630981 403.098114,657.730469 
	C401.898987,656.440002 400.665894,655.181152 398.619507,653.039978 
	C398.619507,710.215393 398.619507,766.238342 398.619507,822.719910 
	C386.342407,822.719910 374.608948,822.719910 363.097107,822.161377 
	C363.543396,820.170593 363.964539,818.738281 363.964813,817.305908 
	C363.988556,703.747314 363.979401,590.188660 363.972687,476.630066 
	C375.270935,476.630066 386.569214,476.630066 398.467468,476.630066 
	C398.467468,528.972473 398.467468,581.301025 398.467468,634.846985 
	C409.860992,622.849731 420.322388,611.753723 430.871185,600.741394 
	C464.069519,566.084106 497.352509,531.507751 530.467529,496.771118 
	C535.909973,491.062195 540.613342,484.653503 545.794983,478.686890 
	C546.795898,477.534332 548.425781,476.207794 549.779724,476.192200 
	C565.040344,476.016296 580.303711,476.080872 596.235291,477.204956 
	C543.315613,532.268677 490.395935,587.332397 437.216736,642.666138 
	C469.682037,678.054199 502.163208,713.459595 535.439087,749.731201 
	C539.208557,722.109497 554.742371,703.662659 576.591492,689.435486 
	C573.284302,684.976685 569.825623,680.925110 567.042053,676.453491 
	C555.805725,658.402954 551.864685,639.533997 562.087036,619.645142 
	C571.814209,600.719604 595.622070,589.437378 616.543335,593.511719 
	C639.742126,598.029602 655.246399,614.599365 657.258484,637.801331 
	C658.606201,653.341919 652.839539,666.559998 642.003601,677.520813 
	C636.999878,682.582153 631.503723,687.156799 625.865540,692.284302 
	C653.652100,721.224854 681.432800,750.159241 709.549438,779.430115 
	C710.002014,780.011658 710.191650,780.168396 710.622498,780.463013 
	C711.059692,780.453308 711.328735,780.217285 711.694092,779.523010 
	C711.822205,678.046143 711.854126,577.027588 711.886047,476.009033 
	C712.182495,475.994751 712.442749,475.890350 713.249023,475.636597 
	C749.549316,475.619202 785.267578,475.660950 820.985779,475.702698 
M820.785339,791.068665 
	C852.401611,789.218506 877.361145,764.012024 879.159790,732.116638 
	C881.012695,699.259399 860.067932,670.778625 827.776855,667.208740 
	C801.320435,664.283875 774.385193,665.689941 747.006653,665.163513 
	C747.006653,707.834839 747.006653,749.406799 747.247498,791.752075 
	C748.393616,792.164734 749.538513,792.933472 750.685974,792.937195 
	C772.552734,793.008362 794.419861,793.015503 816.286438,792.920593 
	C817.517578,792.915283 818.744324,791.917908 820.785339,791.068665 
M747.049133,627.313354 
	C746.446167,630.546387 748.015259,631.127197 750.950623,631.109558 
	C771.277466,630.987915 791.606262,631.139343 811.932129,630.952759 
	C816.382874,630.911926 820.944641,630.324768 825.250427,629.203003 
	C852.236084,622.172852 869.347412,598.006042 868.571045,568.377686 
	C867.674744,534.173462 843.289001,510.248199 809.129211,510.133270 
	C790.301636,510.069916 771.473633,510.106689 752.645813,510.117859 
	C750.888916,510.118896 749.132141,510.261353 747.052917,510.352234 
	C747.052917,549.402039 747.052917,587.875671 747.049133,627.313354 
M601.242615,716.214417 
	C600.411926,715.422913 599.581177,714.631470 598.571594,713.669617 
	C594.277222,717.325378 590.097656,720.854248 585.950195,724.420410 
	C578.447937,730.871216 573.275146,738.821777 570.300354,748.283386 
	C564.933899,765.351318 571.911011,782.654663 587.719666,791.133606 
	C610.154114,803.166199 641.341797,795.524597 656.242859,774.342590 
	C656.089294,774.049927 655.993103,773.702637 655.774048,773.472351 
	C637.769287,754.550232 619.754944,735.637268 601.242615,716.214417 
M624.021729,644.933655 
	C623.595642,641.536804 623.914734,637.814575 622.600769,634.805481 
	C618.968018,626.486633 609.609985,623.336853 600.709229,626.821472 
	C591.813416,630.304199 586.776917,640.126587 590.628662,649.260620 
	C593.454712,655.962708 598.344299,661.794739 602.537964,668.364990 
	C606.128784,665.340088 609.053833,663.378906 611.340393,660.842163 
	C615.714294,655.989685 619.724915,650.809692 624.021729,644.933655 
z"/>
<path fill="#F1EEE8" opacity="1.000000" stroke="none" 
	d="
M292.672272,484.736328 
	C274.002533,525.208313 262.196960,567.210693 258.318329,611.252869 
	C253.902695,661.392883 259.753479,710.527954 276.579987,757.914612 
	C316.746216,871.030396 393.678528,948.433289 506.304871,989.550659 
	C560.577942,1009.364502 616.919312,1014.405579 674.202393,1006.236389 
	C764.471069,993.362976 838.884460,951.273315 898.634644,882.921570 
	C948.822327,825.508972 978.449646,758.529724 986.348572,682.864990 
	C996.516113,585.468323 973.069702,496.617737 912.779724,418.624481 
	C867.914307,360.584869 810.472839,319.482910 741.491577,294.534760 
	C736.181580,292.614288 730.753845,291.019165 725.241699,289.227570 
	C725.241699,282.720032 724.974304,276.265289 725.340210,269.846588 
	C725.566101,265.885681 733.183167,262.195221 737.776001,263.932495 
	C754.577576,270.287750 771.839417,275.758850 787.929565,283.609131 
	C911.394165,343.846710 986.921021,441.904144 1010.412720,576.908875 
	C1031.585815,698.588074 999.307068,807.654907 919.077881,901.444275 
	C859.302063,971.323120 783.270203,1014.931335 692.696899,1031.482056 
	C602.237244,1048.012207 516.197021,1033.768799 435.788513,989.016846 
	C353.032013,942.958130 293.629028,875.642700 257.743073,787.996948 
	C234.122925,730.308289 224.664886,670.142517 230.323456,607.977844 
	C237.289139,531.453369 264.105164,462.373535 310.861542,401.361237 
	C362.859924,333.508667 429.700134,286.463318 511.343872,260.770447 
	C522.071106,257.394653 533.083435,254.924698 544.468628,251.901123 
	C544.468628,262.049622 544.468628,271.322388 544.468628,280.462982 
	C430.238312,310.935516 345.415680,377.747620 292.672272,484.736328 
z"/>
<path fill="#F3EFE9" opacity="1.000000" stroke="none" 
	d="
M572.992676,195.998199 
	C574.242004,188.378006 579.841980,185.884003 586.845276,189.978806 
	C610.379517,203.739197 633.883301,217.551559 657.390808,231.357635 
	C673.303406,240.703186 689.185303,250.101105 705.114685,259.417908 
	C713.756775,264.472504 714.040833,272.077301 705.514832,277.131714 
	C666.009583,300.551483 626.469177,323.912079 586.916687,347.252075 
	C580.507629,351.034027 575.834961,349.434174 573.154785,342.251862 
	C573.229187,341.521057 573.106140,341.259003 572.983093,340.996948 
	C572.900513,335.689117 572.748291,330.381317 572.746582,325.073456 
	C572.732971,282.687958 572.747742,240.302475 573.028442,197.365936 
	C573.368958,196.711304 573.513489,196.548782 573.487427,196.513947 
	C573.345764,196.324631 573.161987,196.166840 572.992676,195.998199 
z"/>
<path fill="#FFFFFF" opacity="1.000000" stroke="none" 
	d="
M363.604248,476.562134 
	C363.979401,590.188660 363.988556,703.747314 363.964813,817.305908 
	C363.964539,818.738281 363.543396,820.170593 362.997345,821.782532 
	C362.562439,820.314514 362.349823,818.666931 362.349426,817.019287 
	C362.322571,706.400024 362.305634,595.780823 362.340607,485.161560 
	C362.341522,482.272369 362.924377,479.383331 363.604248,476.562134 
z"/>
<path fill="#010101" opacity="1.000000" stroke="none" 
	d="
M711.505737,476.125183 
	C711.854126,577.027588 711.822205,678.046143 711.401367,779.556396 
	C710.826477,780.110901 710.640442,780.173767 710.454346,780.236694 
	C710.191650,780.168396 710.002014,780.011658 709.860229,779.578857 
	C709.894958,771.237549 710.005859,763.084045 710.006897,754.930542 
	C710.018005,663.884705 710.005493,572.838806 710.057312,481.792999 
	C710.058350,479.942261 710.753845,478.091888 711.505737,476.125183 
z"/>
<path fill="#010101" opacity="1.000000" stroke="none" 
	d="
M820.850708,475.339294 
	C785.267578,475.660950 749.549316,475.619202 713.367432,475.458801 
	C714.403198,474.895996 715.901733,474.067535 717.402100,474.064178 
	C750.460327,473.989868 783.518738,473.995300 816.577087,474.047607 
	C817.957092,474.049805 819.336182,474.652771 820.850708,475.339294 
z"/>
<path fill="#FFFFFA" opacity="1.000000" stroke="none" 
	d="
M572.909607,341.251404 
	C573.106140,341.259003 573.229187,341.521057 573.203369,341.885742 
	C572.981689,341.827515 572.908936,341.666687 572.909607,341.251404 
z"/>
<path fill="#FFFFFA" opacity="1.000000" stroke="none" 
	d="
M572.905884,196.249023 
	C573.161987,196.166840 573.345764,196.324631 573.487427,196.513947 
	C573.513489,196.548782 573.368958,196.711304 573.143066,196.909790 
	C572.928467,196.836395 572.873779,196.668121 572.905884,196.249023 
z"/>
<path fill="#0D0D0E" opacity="1.000000" stroke="none" 
	d="
M747.006653,790.978760 
	C747.006653,749.406799 747.006653,707.834839 747.006653,665.163513 
	C774.385193,665.689941 801.320435,664.283875 827.776855,667.208740 
	C860.067932,670.778625 881.012695,699.259399 879.159790,732.116638 
	C877.361145,764.012024 852.401611,789.218506 819.914673,791.178223 
	C797.496216,791.344177 775.948364,791.416626 754.400513,791.435242 
	C751.936035,791.437378 749.471252,791.138245 747.006653,790.978760 
z"/>
<path fill="#0D0D0F" opacity="1.000000" stroke="none" 
	d="
M747.051025,626.831299 
	C747.052917,587.875671 747.052917,549.402039 747.052917,510.352234 
	C749.132141,510.261353 750.888916,510.118896 752.645813,510.117859 
	C771.473633,510.106689 790.301636,510.069916 809.129211,510.133270 
	C843.289001,510.248199 867.674744,534.173462 868.571045,568.377686 
	C869.347412,598.006042 852.236084,622.172852 825.250427,629.203003 
	C820.944641,630.324768 816.382874,630.911926 811.932129,630.952759 
	C791.606262,631.139343 771.277466,630.987915 750.950623,631.109558 
	C748.015259,631.127197 746.446167,630.546387 747.051025,626.831299 
z"/>
<path fill="#0E0E0F" opacity="1.000000" stroke="none" 
	d="
M601.491943,716.468994 
	C619.754944,735.637268 637.769287,754.550232 655.774048,773.472351 
	C655.993103,773.702637 656.089294,774.049927 656.240112,774.343994 
	C641.341797,795.524597 610.154114,803.166199 587.719666,791.133606 
	C571.911011,782.654663 564.933899,765.351318 570.300354,748.283386 
	C573.275146,738.821777 578.447937,730.871216 585.950195,724.420410 
	C590.097656,720.854248 594.277222,717.325378 598.571594,713.669617 
	C599.581177,714.631470 600.411926,715.422913 601.491943,716.468994 
z"/>
<path fill="#0F0F11" opacity="1.000000" stroke="none" 
	d="
M623.954041,645.349609 
	C619.724915,650.809692 615.714294,655.989685 611.340393,660.842163 
	C609.053833,663.378906 606.128784,665.340088 602.537964,668.364990 
	C598.344299,661.794739 593.454712,655.962708 590.628662,649.260620 
	C586.776917,640.126587 591.813416,630.304199 600.709229,626.821472 
	C609.609985,623.336853 618.968018,626.486633 622.600769,634.805481 
	C623.914734,637.814575 623.595642,641.536804 623.954041,645.349609 
z"/>
<path fill="#FFFFFF" opacity="1.000000" stroke="none" 
	d="
M747.127075,791.365417 
	C749.471252,791.138245 751.936035,791.437378 754.400513,791.435242 
	C775.948364,791.416626 797.496216,791.344177 819.508606,791.335022 
	C818.744324,791.917908 817.517578,792.915283 816.286438,792.920593 
	C794.419861,793.015503 772.552734,793.008362 750.685974,792.937195 
	C749.538513,792.933472 748.393616,792.164734 747.127075,791.365417 
z"/>
<path fill="#0C0C0E" opacity="1.000000" stroke="none" 
	d="
M710.622498,780.463013 
	C710.640442,780.173767 710.826477,780.110901 711.305176,780.014648 
	C711.328735,780.217285 711.059692,780.453308 710.622498,780.463013 
z"/>
</svg>